<svg version="1.1" id="Layer_1" xmlns="http://www.w3.org/2000/svg" xmlns:xlink="http://www.w3.org/1999/xlink" x="0px" y="0px"
	 width="100%" viewBox="0 0 1024 1024" enable-background="new 0 0 1024 1024" xml:space="preserve">
<path fill="#73f9ebf0" opacity="1.000000" stroke="none" 
	d="
M476.972260,457.141388 
	C487.985046,487.167755 498.524628,516.959412 511.949982,545.859131 
	C511.949982,531.794495 511.950836,517.729797 511.948822,503.665131 
	C511.948608,501.998810 512.050598,500.321747 511.900330,498.668304 
	C511.549408,494.806061 513.028503,493.224121 517.064148,493.543060 
	C521.371582,493.883514 525.733032,493.853027 530.052795,493.630920 
	C533.949707,493.430573 535.400940,494.921967 535.346802,498.824280 
	C535.196777,509.653473 535.469971,520.489685 535.238586,531.315979 
	C535.150452,535.440369 536.483032,536.882690 540.626770,536.806946 
	C552.120789,536.596558 563.621704,536.803528 575.118408,536.693542 
	C599.118408,536.463989 618.882446,522.268005 625.414917,499.146881 
	C632.381226,474.490265 629.768372,451.456879 609.575867,433.138641 
	C601.320251,425.649261 591.380005,421.466217 580.108887,421.154602 
	C567.466736,420.805084 554.818420,420.657471 542.171753,420.505035 
	C535.919739,420.429657 535.238403,421.165771 535.242920,427.234558 
	C535.250610,437.565979 535.121033,447.900909 535.361389,458.227112 
	C535.463989,462.632538 534.240906,464.742126 529.460876,464.366089 
	C525.154114,464.027313 520.798584,464.180145 516.469482,464.298340 
	C513.327393,464.384094 511.845306,463.101562 511.846710,459.921539 
	C511.855103,441.258514 511.867401,422.595245 511.765228,403.932678 
	C511.744720,400.185333 513.785156,399.708008 516.858276,399.564514 
	C533.670898,398.779266 550.487915,399.949310 567.288025,399.411407 
	C579.741577,399.012665 591.807800,400.161560 603.592590,404.540771 
	C630.078674,414.382935 649.860352,441.660095 651.471069,469.860077 
	C652.332153,484.935120 651.213562,499.563934 644.769836,513.285767 
	C631.999146,540.480896 609.796265,554.778442 580.385498,557.105835 
	C563.670044,558.428589 546.769348,557.486084 529.952515,557.425537 
	C517.965027,557.382385 505.992157,558.518982 493.986969,557.654114 
	C491.053070,557.442749 489.450073,556.557007 488.467255,553.767456 
	C484.649780,542.932617 480.496429,532.213257 476.842072,521.325439 
	C475.579132,517.562439 473.803528,515.993713 469.753632,516.041382 
	C452.094391,516.249695 434.431641,516.267761 416.771149,516.172729 
	C413.296234,516.153931 411.822235,517.624634 410.741364,520.731689 
	C407.021484,531.424377 402.943726,541.992249 399.196167,552.675659 
	C397.785065,556.698486 395.509705,558.599670 391.080109,558.282349 
	C386.604248,557.961731 382.083069,558.104858 377.588959,558.257751 
	C373.225861,558.406067 372.391541,556.758484 373.960480,552.808167 
	C381.705444,533.307251 389.226044,513.717163 396.972565,494.216827 
	C408.899902,464.192078 420.468933,434.030945 431.539459,403.681183 
	C432.911285,399.920227 434.449402,397.790131 438.983887,398.452698 
	C442.555786,398.974609 446.326813,398.692963 449.938904,398.224640 
	C453.615814,397.747894 455.353485,399.080353 456.597687,402.481140 
	C463.233795,420.619720 470.065796,438.686615 476.972260,457.141388 
M457.392517,464.026672 
	C453.140778,451.694824 448.889008,439.362976 444.637268,427.031128 
	C436.078400,450.256714 426.947998,472.797424 418.910156,496.170288 
	C435.755737,496.170288 451.552643,496.170288 468.313385,496.170288 
	C464.567871,485.145630 461.106995,474.958862 457.392517,464.026672 
z"/>
<path fill="#73f9ebf0" opacity="1.000000" stroke="none" 
	d="
M359.983337,641.304443 
	C361.386780,652.276306 360.358246,652.798096 349.562195,651.985352 
	C324.736328,650.116577 314.032959,628.619141 313.886200,610.475281 
	C313.686676,585.816528 313.820007,561.155090 313.804718,536.494812 
	C313.803589,534.662537 313.831238,532.825378 313.715637,530.998718 
	C313.106720,521.373779 309.272705,516.266418 300.005859,513.703491 
	C296.752289,512.803711 295.271576,511.212158 295.878052,508.149719 
	C296.544861,504.782837 293.367188,500.210510 298.786133,498.234467 
	C311.941406,493.437317 313.716766,490.847290 313.726990,476.715546 
	C313.745270,451.388855 313.598145,426.059906 313.897797,400.736359 
	C314.064423,386.654327 319.230896,374.747192 331.383575,366.646820 
	C338.463348,361.927765 346.374420,360.522491 354.740997,360.943695 
	C357.190399,361.066986 358.455109,362.089874 358.375397,364.606445 
	C358.349060,365.438202 358.397156,366.272186 358.406219,367.105194 
	C358.501160,375.840637 358.500854,375.840637 349.935516,376.290314 
	C338.024872,376.915619 329.373718,386.831879 329.338226,400.168427 
	C329.273895,424.328949 329.064453,448.493866 329.439636,472.648804 
	C329.635040,485.230621 328.708923,497.043182 317.414154,505.665955 
	C327.663239,514.172729 329.564331,525.056030 329.458923,537.053040 
	C329.257080,560.028748 329.785126,583.010193 329.729980,605.988586 
	C329.719543,610.336060 329.582367,614.603210 330.606750,618.850220 
	C333.348785,630.218933 341.015137,636.455383 352.705658,636.800598 
	C355.811584,636.892334 359.378571,636.207886 359.983337,641.304443 
z"/>
<path fill="#73f9ebf0" opacity="1.000000" stroke="none" 
	d="
M696.606506,601.910217 
	C696.621155,580.435913 696.638733,559.449463 696.645935,538.463013 
	C696.652161,520.104919 696.901306,519.381836 708.096924,505.970490 
	C707.570190,504.288574 705.955627,503.529175 704.866882,502.320892 
	C699.660400,496.543243 696.607178,489.927094 696.615234,482.011261 
	C696.642456,455.195587 696.425110,428.377808 696.695496,401.564819 
	C696.872375,384.024597 685.563660,375.181915 672.588013,376.267273 
	C668.993774,376.567902 667.644165,375.067688 667.564453,371.358551 
	C667.327820,360.337860 667.448425,360.093933 678.417603,361.215515 
	C697.679810,363.184998 711.828857,379.220490 712.056152,400.067047 
	C712.343079,426.380402 712.187622,452.698517 712.239685,479.014526 
	C712.245300,481.835541 712.134277,484.653595 713.129944,487.405914 
	C715.177917,493.067078 718.607666,496.978516 725.086060,496.880493 
	C728.604736,496.827271 729.973206,498.283539 729.418274,501.718201 
	C729.286804,502.532104 729.244019,503.400879 729.374268,504.209991 
	C730.258118,509.701019 729.205627,512.894043 722.680115,514.588806 
	C714.554016,516.699341 712.137634,524.012207 712.134216,531.966187 
	C712.123108,557.782776 712.187988,583.599731 712.077393,609.415894 
	C712.009827,625.184570 706.768311,638.431824 692.736267,647.096619 
	C685.643250,651.476562 677.808838,652.456299 669.677856,652.191956 
	C667.041565,652.106201 665.598450,651.060059 665.733154,648.281921 
	C665.765320,647.617798 665.717773,646.949890 665.713867,646.283752 
	C665.662964,637.610535 665.663330,637.610657 674.235901,636.868958 
	C686.548340,635.803772 695.093262,627.146057 695.916626,614.853516 
	C696.194458,610.704956 696.378174,606.550049 696.606506,601.910217 
z"/>
<path fill="#73f9ebf0" opacity="1.000000" stroke="none" 
	d="
M563.606812,477.695679 
	C568.629272,466.948700 573.583130,456.587158 578.337402,446.134857 
	C579.941956,442.607330 582.109131,441.478363 585.819946,442.757935 
	C589.271729,443.948242 592.815674,444.923950 596.380249,445.720184 
	C600.100220,446.551178 600.246216,448.232056 598.768616,451.433472 
	C589.702820,471.076141 580.854614,490.819122 571.864563,510.496979 
	C568.499390,517.862732 567.966553,518.008179 560.064697,515.365540 
	C548.157043,511.383209 548.115601,511.364471 553.354980,499.780426 
	C556.647400,492.501129 560.086731,485.288269 563.606812,477.695679 
z"/>
<path fill="#73f9ebf0" opacity="1.000000" stroke="none" 
	d="
M433.354370,652.304565 
	C430.883087,652.303162 429.212067,652.741699 429.399231,655.328430 
	C429.570892,657.701416 431.339691,657.681702 433.040619,657.695496 
	C435.370697,657.714355 437.702789,657.742798 440.031006,657.670898 
	C442.430145,657.596924 443.817841,658.539124 443.968689,661.062744 
	C444.118408,663.567322 442.906311,664.858765 440.489990,664.901245 
	C435.499359,664.988831 430.506317,665.017151 425.515259,664.969055 
	C423.160248,664.946289 421.789978,663.682739 421.779938,661.234375 
	C421.747894,653.411987 421.756073,645.589417 421.713959,637.767090 
	C421.700592,635.283936 422.937775,634.044495 425.340454,634.018677 
	C432.652985,633.940247 439.966187,633.879333 447.278992,633.893311 
	C449.598083,633.897705 450.708649,635.358826 451.439209,637.498047 
	C453.153137,642.516724 455.088531,647.459656 458.166779,652.652832 
	C460.074310,647.887085 462.090240,643.161133 463.854675,638.342957 
	C465.242126,634.554260 467.464844,632.934937 472.011505,634.711182 
	C471.456909,639.599609 469.233521,644.056152 467.682587,648.654968 
	C466.356934,652.585693 464.443085,656.314209 462.934357,660.188538 
	C461.887451,662.876892 460.609863,664.650940 457.211456,664.590210 
	C453.799744,664.529236 452.677307,662.725830 451.723480,659.961731 
	C449.178314,652.585876 446.433929,645.278748 443.540039,637.315063 
	C442.354218,641.445496 439.399780,641.019348 436.652130,641.083618 
	C434.989349,641.122498 433.325195,641.163879 431.665833,641.269714 
	C430.337036,641.354431 429.450287,642.037292 429.443298,643.451599 
	C429.436279,644.871826 430.308258,645.544983 431.653839,645.615417 
	C432.982513,645.684814 434.314484,645.700928 435.645294,645.716797 
	C437.917084,645.743896 440.112274,645.833862 440.179321,648.962524 
	C440.247284,652.133484 438.070892,652.266113 435.778992,652.273804 
	C435.113190,652.276062 434.447388,652.287781 433.354370,652.304565 
z"/>
<path fill="#73f9ebf0" opacity="1.000000" stroke="none" 
	d="
M475.560669,590.901978 
	C479.180145,589.921021 481.173492,591.583374 483.119049,593.959106 
	C486.636719,598.254578 489.728271,602.958069 494.864227,607.424744 
	C494.864227,602.441223 494.946808,598.509033 494.836731,594.582275 
	C494.756470,591.718811 495.253845,589.743103 498.802460,589.713440 
	C502.395782,589.683350 503.381012,591.452209 503.329163,594.672424 
	C503.211304,601.991516 503.266083,609.313354 503.217346,616.633789 
	C503.204071,618.624939 503.346893,620.812866 501.133911,621.844116 
	C498.625610,623.012939 496.440033,621.797485 494.824036,620.091003 
	C491.511566,616.593018 488.476990,612.832886 485.294281,609.210327 
	C484.657410,608.485474 483.870117,607.892822 482.673889,606.803711 
	C481.420685,611.161621 482.398163,615.123596 482.006012,618.968567 
	C481.751312,621.465820 480.458527,622.377197 478.047119,622.363464 
	C475.720367,622.350220 473.978210,621.630554 473.969971,619.099548 
	C473.941254,610.290955 474.034363,601.481567 474.157715,592.673584 
	C474.165375,592.125793 474.831177,591.587280 475.560669,590.901978 
z"/>
<path fill="#73f9ebf0" opacity="1.000000" stroke="none" 
	d="
M434.569885,604.300720 
	C430.376007,610.337402 432.026123,615.269165 436.310913,619.913025 
	C436.583191,620.208069 436.502899,620.828491 436.583954,621.282593 
	C430.354797,623.373779 428.600311,622.772766 425.588287,617.578003 
	C425.171295,616.858765 424.715790,616.155884 424.367126,615.404175 
	C423.397247,613.313232 421.933990,612.422241 419.563843,612.978210 
	C417.037292,613.570801 417.239655,615.511292 417.280945,617.302734 
	C417.351349,620.358154 416.736023,622.478943 412.929535,622.338379 
	C409.370697,622.207092 408.905273,620.010864 408.975739,617.300537 
	C409.182861,609.332581 409.484222,601.366882 409.658966,593.398376 
	C409.716644,590.768433 411.173767,589.924011 413.474152,589.888855 
	C416.633118,589.840698 419.796570,589.696777 422.950806,589.805542 
	C431.672241,590.106262 435.637085,594.929504 434.569885,604.300720 
M420.531525,605.632202 
	C421.024200,605.611023 421.518066,605.604919 422.009369,605.566162 
	C424.782928,605.347351 426.780182,604.270569 426.802429,601.108398 
	C426.816681,599.080750 426.107941,597.410156 423.853119,597.301941 
	C421.692230,597.198242 418.676483,595.969788 417.753143,598.730042 
	C417.006531,600.962097 415.640869,604.346924 420.531525,605.632202 
z"/>
<path fill="#73f9ebf0" opacity="1.000000" stroke="none" 
	d="
M610.282104,602.024048 
	C610.231750,607.348816 610.251831,612.179626 610.093506,617.004456 
	C610.030212,618.930481 610.214233,621.228699 607.637878,621.908569 
	C605.114563,622.574524 603.093018,621.737061 601.544617,619.601868 
	C599.199341,616.367798 596.812073,613.162964 594.380981,609.993042 
	C593.808044,609.245972 593.213257,608.329773 591.011536,608.587158 
	C591.011536,611.691406 591.103455,614.946655 590.981750,618.193909 
	C590.888672,620.677856 589.715149,622.202148 586.917480,622.158142 
	C583.971191,622.111877 583.043030,620.260925 583.278442,617.894104 
	C584.024658,610.391296 582.331299,602.939148 582.991272,595.454407 
	C583.146484,593.693726 582.729858,591.532288 585.058533,590.871460 
	C587.299011,590.235596 589.214294,590.802063 590.808228,592.760986 
	C594.211609,596.943848 596.557251,602.074768 601.544312,605.346497 
	C603.713135,601.814758 602.473877,598.263550 602.783447,594.928955 
	C603.002930,592.564087 603.298401,590.706665 606.357056,590.648193 
	C609.568848,590.586792 610.361877,592.282471 610.277832,595.031677 
	C610.211731,597.194946 610.275146,599.362122 610.282104,602.024048 
z"/>
<path fill="#73f9ebf0" opacity="1.000000" stroke="none" 
	d="
M625.468994,590.463867 
	C636.170227,591.040100 642.242493,595.619568 643.254333,603.597473 
	C644.617126,614.342407 637.898193,622.215515 626.972168,622.239746 
	C612.740173,622.271240 615.022156,623.358826 614.722595,610.406982 
	C614.622437,606.076843 614.701599,601.742554 614.696777,597.410156 
	C614.689209,590.553589 615.091064,590.147461 622.047363,590.179810 
	C623.043518,590.184448 624.039062,590.333557 625.468994,590.463867 
M623.057312,610.217651 
	C623.322876,612.509033 622.313599,615.516907 626.346558,615.573975 
	C630.893799,615.638245 635.063354,612.431458 635.650757,608.263611 
	C636.428345,602.746094 633.691101,598.573792 628.534119,597.491028 
	C624.983521,596.745483 622.632874,597.516602 622.941467,601.857239 
	C623.117126,604.327637 623.028870,606.816711 623.057312,610.217651 
z"/>
<path fill="#73f9ebf0" opacity="1.000000" stroke="none" 
	d="
M629.268066,635.306274 
	C635.348938,639.701172 637.268799,644.982788 633.526489,649.917297 
	C630.136536,654.387146 630.960449,657.505005 634.185303,661.070984 
	C634.821960,661.774902 635.473572,662.616699 635.134277,664.081848 
	C631.894653,665.621460 628.962463,665.254517 626.496277,662.258911 
	C625.335083,660.848389 624.233948,659.388489 623.083435,657.968994 
	C622.010254,656.644958 620.868408,655.364868 618.899658,656.035339 
	C617.083374,656.653748 617.129578,658.294067 617.096130,659.770935 
	C617.031128,662.644592 616.212280,664.504639 612.773254,664.439453 
	C609.136536,664.370544 608.866394,662.078186 608.861084,659.410950 
	C608.847534,652.595032 608.916443,645.778137 608.815247,638.963623 
	C608.765076,635.588989 610.291321,634.126099 613.585205,634.080872 
	C618.727112,634.010315 623.894836,633.414734 629.268066,635.306274 
M620.581177,648.724731 
	C621.404297,648.702393 622.239441,648.761230 623.048279,648.642151 
	C625.318665,648.307922 627.351318,647.435913 627.432495,644.806396 
	C627.501831,642.561096 625.618713,641.590942 623.793457,641.500977 
	C621.554993,641.390686 618.447632,639.943542 617.464539,643.297607 
	C616.889587,645.259216 616.208557,648.119568 620.581177,648.724731 
z"/>
<path fill="#73f9ebf0" opacity="1.000000" stroke="none" 
	d="
M522.600159,640.919250 
	C527.372498,633.401855 539.063904,630.896545 545.976685,635.584595 
	C553.870056,640.937561 555.431824,651.511169 549.472534,659.251648 
	C544.293152,665.979126 532.964966,667.190369 526.150696,661.745239 
	C520.560181,657.277954 519.225586,649.913818 522.600159,640.919250 
M543.537109,654.841675 
	C544.908325,653.168640 544.840515,651.149597 544.875977,649.166687 
	C544.978333,643.445251 543.060913,640.581177 538.619019,640.152466 
	C534.606812,639.765198 530.984619,640.324036 529.289307,644.818665 
	C527.748596,648.903381 528.595520,654.795288 531.676331,656.660706 
	C535.565002,659.015320 539.545349,658.747864 543.537109,654.841675 
z"/>
<path fill="#73f9ebf0" opacity="1.000000" stroke="none" 
	d="
M410.531677,634.968628 
	C417.223236,638.038635 419.175079,643.476929 418.896637,649.848877 
	C418.590576,656.851440 415.004364,661.680481 408.231110,663.925903 
	C407.130371,664.290771 406.003326,664.603699 404.866119,664.827026 
	C392.531921,667.250183 390.744202,665.833740 390.640594,653.521606 
	C390.598663,648.540710 390.730072,643.556091 390.582245,638.579163 
	C390.480560,635.156494 391.969849,633.749084 395.311859,633.794128 
	C400.281891,633.861206 405.282440,633.362366 410.531677,634.968628 
M398.695648,656.615234 
	C403.131470,658.800842 407.194855,657.976379 409.452820,654.432617 
	C411.837524,650.689941 411.310516,644.457947 408.273041,642.029053 
	C405.764130,640.022705 402.671661,639.528198 399.820251,640.601807 
	C397.253235,641.568298 398.440948,644.369019 398.350464,646.375854 
	C398.209137,649.511230 398.394775,652.661255 398.695648,656.615234 
z"/>
<path fill="#73f9ebf0" opacity="1.000000" stroke="none" 
	d="
M440.068420,614.605347 
	C435.559814,601.899780 441.370392,591.246277 452.778046,590.634521 
	C461.936188,590.143311 468.098450,594.791077 470.067047,603.674316 
	C471.774231,611.377930 468.306183,618.629272 461.583923,621.411560 
	C453.454071,624.776489 444.929871,622.197021 440.068420,614.605347 
M446.349304,608.941589 
	C447.206512,613.945557 450.577179,615.805115 455.218567,615.721497 
	C459.244385,615.648987 461.611542,613.183655 462.533081,609.471863 
	C463.683350,604.838928 462.376465,600.864014 458.281891,598.245789 
	C454.920990,596.096802 451.652740,596.878845 448.734802,599.415527 
	C446.014099,601.780762 446.171814,604.960327 446.349304,608.941589 
z"/>
<path fill="#73f9ebf0" opacity="1.000000" stroke="none" 
	d="
M568.426941,609.027588 
	C565.902222,609.294250 565.154297,610.553833 565.431274,612.530212 
	C565.711975,614.532654 567.250427,614.641235 568.805054,614.682129 
	C571.136536,614.743469 573.469482,614.768555 575.799438,614.864685 
	C578.754639,614.986572 580.497742,616.461670 580.533264,619.512817 
	C580.574524,623.050659 577.813660,622.215027 575.833679,622.266479 
	C571.338318,622.383423 566.836060,622.239746 562.341248,622.366455 
	C559.251221,622.453552 557.709717,621.348450 557.746521,618.054443 
	C557.833862,610.225586 557.826599,602.393860 557.706421,594.565552 
	C557.656616,591.325806 559.185120,590.012146 562.211670,590.012329 
	C567.042297,590.012573 571.872986,590.013000 576.703552,590.038513 
	C578.812256,590.049622 580.235413,590.821106 580.205261,593.246948 
	C580.176514,595.556946 579.397339,597.156372 576.804321,597.213867 
	C573.973267,597.276672 571.141113,597.291321 568.310364,597.365051 
	C566.823364,597.403809 565.608459,598.021179 565.553711,599.643066 
	C565.492554,601.455566 566.920105,601.690063 568.328186,601.738831 
	C570.159180,601.802246 571.992676,601.803772 573.822693,601.885254 
	C576.007263,601.982422 577.118469,603.085510 577.189697,605.350342 
	C577.265198,607.751831 575.931274,608.607910 573.834961,608.749817 
	C572.173645,608.862366 570.507812,608.907349 568.426941,609.027588 
z"/>
<path fill="#73f9ebf0" opacity="1.000000" stroke="none" 
	d="
M475.830963,664.868896 
	C473.671814,664.143616 473.533295,662.706848 473.481659,661.126526 
	C473.221008,653.148010 474.246277,645.155151 473.157898,637.182922 
	C472.851624,634.939392 473.967621,633.720642 476.294312,633.732056 
	C481.124603,633.755676 485.954956,633.797119 490.785217,633.790771 
	C493.290314,633.787476 494.352112,634.985168 494.366425,637.475586 
	C494.379913,639.819092 493.200867,640.811340 491.056030,640.926880 
	C488.728088,641.052246 486.395355,641.086182 484.066467,641.197083 
	C482.586060,641.267578 481.423096,641.815552 481.444489,643.535767 
	C481.466370,645.294067 482.715881,645.697205 484.165680,645.759949 
	C485.663239,645.824829 487.162415,645.849731 488.660675,645.899292 
	C490.840729,645.971313 492.015411,647.016602 492.128723,649.277954 
	C492.246094,651.620911 491.036682,652.614929 488.880798,652.774536 
	C488.050751,652.836060 487.206757,652.782288 486.387665,652.904846 
	C484.421387,653.199158 481.378601,652.258057 481.544220,655.602112 
	C481.704681,658.841919 484.722748,657.700256 486.674408,657.989807 
	C488.151459,658.208923 489.656189,658.247742 491.149963,658.346313 
	C493.594055,658.507690 494.775024,659.910217 494.718109,662.249451 
	C494.654022,664.881409 492.509644,664.885498 490.723114,664.922974 
	C485.896393,665.024231 481.066315,664.962585 475.830963,664.868896 
z"/>
<path fill="#73f9ebf0" opacity="1.000000" stroke="none" 
	d="
M564.680176,656.476196 
	C564.257629,658.043030 563.970825,659.352966 563.978027,660.661316 
	C563.992493,663.277588 563.123657,664.703369 560.184814,664.574341 
	C557.350830,664.449951 555.953003,663.409485 555.887634,660.402405 
	C555.724609,652.903625 556.322144,645.445740 556.756104,637.975220 
	C556.910828,635.312195 558.492004,634.676758 560.764404,634.689331 
	C564.758179,634.711487 568.754089,634.609436 572.745667,634.703735 
	C578.098694,634.830200 580.653870,637.050171 581.241150,641.864807 
	C582.135864,649.199524 579.918579,654.173523 574.814270,655.283813 
	C571.609680,655.981018 568.242859,655.932617 564.680176,656.476196 
M572.377014,648.469177 
	C574.588501,647.284973 575.093445,645.436951 573.715393,643.496704 
	C571.266541,640.048828 567.919617,641.496277 564.807129,641.992981 
	C563.703491,648.852112 563.953613,649.086182 572.377014,648.469177 
z"/>
<path fill="#73f9ebf0" opacity="1.000000" stroke="none" 
	d="
M600.410095,657.506714 
	C603.391663,657.230530 606.012634,656.822998 606.221008,660.658081 
	C606.428162,664.468811 603.874634,664.401917 601.245056,664.380554 
	C597.083069,664.346802 592.914734,664.228394 588.760254,664.406311 
	C585.342041,664.552795 583.891418,663.164734 583.924988,659.766174 
	C583.993958,652.775330 583.992737,645.781799 583.869568,638.791992 
	C583.818115,635.873230 584.962891,634.451172 587.902588,634.415649 
	C592.387146,634.361450 596.870605,634.202820 601.355103,634.164307 
	C603.946716,634.142090 605.305542,635.324097 605.277283,638.128540 
	C605.248413,640.988953 603.524109,641.313049 601.323730,641.312073 
	C599.160156,641.311035 596.994873,641.355408 594.833496,641.451538 
	C593.358032,641.517151 592.183899,642.066101 592.329041,643.834229 
	C592.451538,645.327209 593.614258,645.525146 594.819031,645.765625 
	C597.578613,646.316528 602.291992,644.426697 601.858826,649.530151 
	C601.443665,654.421631 596.788757,651.510620 594.138428,652.413940 
	C593.533752,652.620056 592.887146,652.703247 592.260071,652.843018 
	C591.227051,656.034363 591.817871,657.859192 595.499817,657.600952 
	C596.991577,657.496399 598.495056,657.560791 600.410095,657.506714 
z"/>
<path fill="#73f9ebf0" opacity="1.000000" stroke="none" 
	d="
M384.660492,596.144470 
	C384.028015,591.263489 386.072876,589.653442 390.330444,589.855713 
	C394.483124,590.052917 398.652710,589.878235 402.814697,589.901489 
	C404.953003,589.913452 406.221588,590.812317 406.307770,593.171021 
	C406.399353,595.677979 405.307190,596.913940 402.840698,596.990662 
	C401.010284,597.047546 399.165863,597.246399 397.351196,597.096985 
	C393.222900,596.756958 391.918732,598.635437 392.854797,602.753296 
	C395.373169,603.908325 398.204803,603.657959 400.967316,603.635376 
	C403.534088,603.614319 404.579590,604.994873 404.742981,607.285217 
	C404.927765,609.875549 403.146454,610.231140 401.150269,610.270996 
	C400.318024,610.287598 399.473389,610.423035 398.656067,610.324585 
	C394.300781,609.800293 391.989716,611.119690 392.807648,616.048828 
	C393.122925,617.948914 393.069244,620.206116 391.451721,621.654724 
	C390.122345,622.845276 388.281982,622.451599 386.649536,622.146118 
	C384.647614,621.771484 384.726471,620.081177 384.716949,618.601257 
	C384.669861,611.275879 384.674194,603.950134 384.660492,596.144470 
z"/>
<path fill="#73f9ebf0" opacity="1.000000" stroke="none" 
	d="
M510.642242,596.429443 
	C508.572540,595.291931 506.406036,594.616394 506.920410,591.983887 
	C507.483032,589.104431 509.926971,589.862061 511.763794,589.829468 
	C516.582642,589.743896 521.404968,589.819946 526.225403,589.873596 
	C528.430664,589.898132 530.195068,590.510010 530.174927,593.229309 
	C530.153809,596.070618 528.185608,596.548035 526.084229,596.280457 
	C520.934692,595.624756 519.907043,598.212646 520.157043,602.702393 
	C520.452393,608.004578 520.128052,613.338501 520.203857,618.656860 
	C520.242432,621.368896 518.979065,622.714783 516.395874,622.810730 
	C513.670654,622.911926 512.600769,621.410645 512.599304,618.757935 
	C512.596680,613.944031 512.455750,609.129944 512.340149,604.316650 
	C512.277100,601.690125 512.561096,598.991638 510.642242,596.429443 
z"/>
<path fill="#73f9ebf0" opacity="1.000000" stroke="none" 
	d="
M497.659668,662.646423 
	C497.725403,654.629028 499.144043,647.040833 497.964966,639.357239 
	C497.552185,636.667542 497.211823,633.330017 501.683990,633.304749 
	C505.654572,633.282349 506.160065,635.826538 506.094635,638.997803 
	C506.008789,643.160461 506.410645,647.355347 506.032257,651.484070 
	C505.548340,656.764160 507.846222,658.338379 512.698059,657.750549 
	C514.662415,657.512512 516.689270,657.745361 518.685120,657.826782 
	C520.300964,657.892639 521.032776,658.869934 521.099365,660.420471 
	C521.158386,661.795044 521.093811,663.671875 519.599976,663.712280 
	C512.307312,663.909546 504.916138,666.322998 497.659668,662.646423 
z"/>
<path fill="#73f9ebf0" opacity="1.000000" stroke="none" 
	d="
M538.173096,614.966187 
	C536.236877,614.822876 534.726868,614.843750 533.296631,614.516235 
	C531.266724,614.051392 531.036621,612.352905 531.128174,610.615417 
	C531.219727,608.879578 532.138123,607.818848 533.914307,607.800903 
	C538.034668,607.759216 542.155762,607.796814 546.276611,607.806396 
	C548.963440,607.812622 549.481506,609.620728 549.567627,611.782898 
	C549.665833,614.247925 548.043457,614.862366 546.053101,614.926331 
	C543.582458,615.005798 541.107849,614.964050 538.173096,614.966187 
z"/>
</svg>